<svg enable-background="new 0 0 256 256" height="512" viewBox="0 0 256 256" width="512" xmlns="http://www.w3.org/2000/svg"><path d="m140.013 98.566v26.991c0 2.867 2.324 5.191 5.191 5.191s5.191-2.324 5.191-5.191v-26.991z" fill="#f9677f"/><path d="m158.285 98.566h-7.89v26.991c0 .269-.04.528-.079.787.071.001.141.01.212.01 8.276 0 14.985-6.709 14.985-14.985-.001-5.432-2.901-10.175-7.228-12.803z" fill="#fc3850"/><path d="m63.321 91.866c2.867 0 5.191 2.324 5.191 5.191v28.5c0 2.867-2.324 5.191-5.191 5.191s-5.191-2.324-5.191-5.191v-28.5c0-2.867 2.324-5.191 5.191-5.191z" fill="#f9677f"/><path d="m57.997 96.384c.067 0 .133.007.2.008-.028.22-.067.437-.067.664v28.5c0 .269.04.528.079.787-.071.001-.141.01-.212.01-8.276 0-14.985-6.709-14.985-14.985.001-8.275 6.709-14.984 14.985-14.984z" fill="#fc3850"/><path d="m96.201 166.25c-.134 0-.27-.005-.406-.016-3.985-.309-7.701-.901-11.045-1.758-2.764-.708-4.431-3.523-3.722-6.287.708-2.764 3.526-4.433 6.287-3.722 2.767.709 5.889 1.202 9.281 1.465 2.845.221 4.972 2.706 4.751 5.551-.211 2.709-2.474 4.767-5.146 4.767z" fill="#fc3850"/><path d="m105.656 72.65v-42.172c-.477-.012-.951-.036-1.431-.036-30.663 0-55.609 24.946-55.609 55.609v13.643c2.569-2.067 5.828-3.31 9.382-3.31.067 0 .133.007.2.008-.028.22-.067.437-.067.664 0-2.867 2.324-5.191 5.191-5.191s5.191 2.324 5.191 5.191c0-.016-.005-.031-.005-.047.374-.749 1.234-1.204 2.12-1.018 6.502 1.361 25.84 3.687 38.949-12.798.495-.622 1.279-.846 1.989-.667-3.511-1.902-5.91-5.622-5.91-9.876z" fill="#edf4fc"/><path d="m105.656 72.65v-32.404c-.477-.015-.951-.036-1.431-.036-25.277 0-45.842 20.565-45.842 45.842v9.486c.653-2.12 2.604-3.671 4.938-3.671 2.867 0 5.191 2.324 5.191 5.191 0-.016-.005-.031-.005-.047.374-.749 1.234-1.204 2.12-1.018 6.502 1.361 25.84 3.687 38.949-12.798.495-.622 1.279-.846 1.989-.667-3.51-1.904-5.909-5.624-5.909-9.878z" fill="#843418"/><path d="m179.198 247.261-2.614-46.922c-.345-6.189-4.673-11.434-10.684-12.947l-27.873-7.016-16.767-8.267-7.704 15.894c-.573 1.182-1.771 1.933-3.084 1.933-.342 0-12.109 0-12.035 0-1.348 0-2.571-.791-3.125-2.02l-7.121-15.807-16.767 8.267-27.873 7.016c-6.011 1.513-10.34 6.759-10.684 12.947l-2.614 46.922c-.189 3.388 2.508 6.239 5.901 6.239h137.144c3.392 0 6.088-2.851 5.9-6.239z" fill="#1387ce"/><path d="m104.203 162.629c-1.023 0-2.033-.059-3.035-.144-.617 2.198-2.636 3.765-4.966 3.765-.134 0-.269-.005-.406-.016-2.671-.207-5.208-.553-7.606-1.008v6.883l7.121 15.807c.554 1.229 1.777 2.02 3.125 2.02h12.035c1.314 0 2.512-.751 3.084-1.933l7.704-15.894v-13.82c-5.081 2.765-10.894 4.34-17.056 4.34z" fill="#f9c1a8"/><path d="m140.013 98.566c-.179-.037-4.898.424-8.642-3.51l-4.366 4.564c-1.591 1.663-4.397.537-4.397-1.764v-10.353c0-2.004-1.625-3.629-3.629-3.629-1.205-.101-4.065.466-7.414-1.348-.71-.179-1.494.045-1.989.667-13.108 16.486-32.446 14.159-38.948 12.799-.887-.185-1.746.27-2.12 1.018 0 .016.005.031.005.047v28.5c0 .466-.081.91-.197 1.34.052 11.66 5.737 22.053 14.46 28.584 1.228-1.001 2.889-1.439 4.539-1.014 2.767.709 5.889 1.202 9.281 1.465 2.845.221 4.972 2.706 4.751 5.551-.027.348-.09.684-.181 1.007 1.002.085 2.014.139 3.037.139 19.74 0 35.891-16.151 35.891-35.891v-.379c-.041-.263-.081-.527-.081-.802z" fill="#f9c1a8"/><path d="m214.534 17.193h-5.729v55.457c0 6.173-5.051 11.224-11.224 11.224h-53.963c-.99 0-1.938.405-2.622 1.12l-9.625 10.062c2.048 2.152 4.925 3.51 8.113 3.51h48.312c.99 0 1.938.405 2.622 1.12l13.991 14.627c1.591 1.663 4.397.537 4.397-1.764v-10.354c0-2.004 1.625-3.629 3.629-3.629h2.1c6.173 0 11.224-5.051 11.224-11.224v-58.925c-.001-6.174-5.051-11.224-11.225-11.224z" fill="#45bdf0"/><path d="m197.581 2.5h-80.701c-6.173 0-11.224 5.051-11.224 11.224v58.926c0 6.173 5.051 11.224 11.224 11.224h2.1c2.004 0 3.629 1.625 3.629 3.629v10.354c0 2.301 2.806 3.427 4.397 1.764l13.991-14.627c.685-.716 1.632-1.12 2.622-1.12h53.963c6.173 0 11.224-5.051 11.224-11.224v-58.926c-.001-6.173-5.051-11.224-11.225-11.224z" fill="#45bdf0"/><g fill="#edf4fc"><circle cx="130.5" cy="44.5" r="5.5"/><circle cx="155.75" cy="44.5" r="5.5"/><circle cx="181" cy="44.5" r="5.5"/></g><path d="m104.72 208.23c-1.344 0-2.5-1.119-2.5-2.5 0-2.261 2.774-3.267 4.27-1.77.47.46.73 1.11.73 1.77 0 1.425-1.173 2.5-2.5 2.5z"/><path d="m102.96 223.49c-1.02-1.019-.951-2.589 0-3.54.93-.93 2.6-.93 3.53 0 .47.47.73 1.11.73 1.77 0 2.232-2.702 3.327-4.26 1.77z"/><path d="m104.72 240.21c-.993 0-1.93-.617-2.3-1.54-.374-.797-.246-1.945.54-2.73 1.477-1.477 4.26-.525 4.26 1.77 0 1.416-1.147 2.5-2.5 2.5z"/><path d="m104.725 145.199c-5.45 0-10.526-2.699-13.581-7.22-.773-1.144-.472-2.698.672-3.471 1.143-.772 2.697-.472 3.471.672 2.123 3.143 5.651 5.019 9.437 5.019s7.314-1.876 9.437-5.019c.773-1.145 2.327-1.445 3.471-.672s1.445 2.327.672 3.471c-3.054 4.521-8.13 7.22-13.579 7.22z"/><path d="m91.04 116.87c-1.344 0-2.5-1.078-2.5-2.5 0-1.607 1.503-2.774 2.99-2.45.923.172 1.767.923 1.96 1.96.295 1.56-.869 2.99-2.45 2.99z"/><path d="m118.41 116.87c-1.437 0-2.5-1.178-2.5-2.5 0-1.648 1.535-2.758 2.99-2.45 1.189.221 2.01 1.304 2.01 2.45 0 1.369-1.133 2.5-2.5 2.5z"/><path d="m173.296 256h-137.144c-2.301 0-4.528-.959-6.11-2.631s-2.416-3.949-2.288-6.247l2.614-46.923c.408-7.321 5.459-13.442 12.57-15.232l27.616-6.951 16.529-8.15c.607-.3 1.312-.339 1.95-.111.638.229 1.156.708 1.435 1.326l7.121 15.807c.149.332.481.546.846.546h12.035c.353 0 .681-.205.834-.522l7.705-15.895c.291-.6.808-1.058 1.438-1.274.629-.216 1.319-.172 1.917.123l16.529 8.15 27.616 6.951c7.111 1.79 12.162 7.911 12.57 15.232l2.614 46.922c.128 2.298-.706 4.575-2.288 6.247-1.58 1.673-3.807 2.632-6.109 2.632zm-86.323-80.505-14.445 7.123c-.158.078-.324.139-.495.182l-27.874 7.016c-4.977 1.253-8.513 5.538-8.798 10.662l-2.614 46.922c-.053.945.277 1.845.928 2.533s1.531 1.067 2.477 1.067h137.144c.947 0 1.827-.379 2.479-1.067.65-.688.98-1.587.928-2.533l-2.614-46.922c-.285-5.125-3.821-9.409-8.799-10.662l-27.873-7.016c-.171-.043-.337-.104-.495-.182l-14.51-7.154-6.606 13.629c-.983 2.03-3.077 3.342-5.334 3.342h-12.037c-2.327 0-4.448-1.371-5.404-3.493z"/><path d="m150.779 256c-1.381 0-2.5-1.119-2.5-2.5v-24.668c0-1.381 1.119-2.5 2.5-2.5s2.5 1.119 2.5 2.5v24.668c0 1.381-1.119 2.5-2.5 2.5z"/><path d="m58.669 256c-1.381 0-2.5-1.119-2.5-2.5v-24.668c0-1.381 1.119-2.5 2.5-2.5s2.5 1.119 2.5 2.5v24.668c0 1.381-1.119 2.5-2.5 2.5z"/><path d="m145.203 133.248c-4.24 0-7.69-3.45-7.69-7.691v-26.991c0-1.381 1.119-2.5 2.5-2.5h10.382c1.381 0 2.5 1.119 2.5 2.5v26.991c0 4.241-3.451 7.691-7.692 7.691zm-2.69-32.182v24.491c0 1.484 1.207 2.691 2.69 2.691 1.484 0 2.691-1.207 2.691-2.691v-24.491z"/><path d="m150.527 128.854c-.096 0-.19-.004-.285-.011-.721-.015-1.39-.34-1.853-.892-.464-.552-.655-1.277-.545-1.99.021-.133.05-.265.05-.404v-26.991c0-1.381 1.119-2.5 2.5-2.5h7.891c.458 0 .906.125 1.298.363 5.277 3.205 8.429 8.79 8.429 14.939 0 9.642-7.844 17.486-17.485 17.486zm2.368-27.788v22.57c5.737-1.095 10.117-6.179 10.117-12.268 0-4.164-2.028-7.968-5.46-10.303h-4.657z"/><path d="m63.321 133.248c-4.241 0-7.691-3.45-7.691-7.691v-28.5c0-4.241 3.45-7.691 7.691-7.691s7.691 3.45 7.691 7.691v28.5c0 4.241-3.45 7.691-7.691 7.691zm0-38.882c-1.484 0-2.691 1.207-2.691 2.691v28.5c0 1.484 1.207 2.691 2.691 2.691s2.691-1.207 2.691-2.691v-28.5c0-1.484-1.207-2.691-2.691-2.691z"/><path d="m57.997 128.854c-9.641 0-17.484-7.844-17.484-17.485s7.843-17.485 17.484-17.485c.085 0 .17.003.254.009.712.01 1.377.324 1.844.862.466.538.672 1.25.581 1.957l-.022.163c-.009.065-.021.13-.025.196v28.485c0 .14.03.274.05.408.109.712-.094 1.436-.558 1.987s-1.142.876-1.862.891c-.071.008-.165.012-.262.012zm-2.367-29.745c-5.756 1.109-10.118 6.185-10.118 12.26s4.361 11.151 10.118 12.26z"/><path d="m96.201 168.75c-.196 0-.394-.008-.593-.022-4.134-.321-7.994-.937-11.479-1.83-1.983-.508-3.651-1.758-4.694-3.521-1.043-1.762-1.338-3.825-.83-5.809.509-1.984 1.759-3.651 3.522-4.695s3.827-1.339 5.81-.828c2.624.672 5.602 1.141 8.852 1.394 2.042.159 3.899 1.103 5.231 2.659s1.978 3.537 1.819 5.579c-.308 3.966-3.663 7.073-7.638 7.073zm-10.175-11.947c-.471 0-.935.126-1.351.373-.613.363-1.049.943-1.226 1.634-.177.69-.075 1.407.288 2.02s.943 1.047 1.632 1.224c3.206.822 6.778 1.389 10.619 1.688.067.005.14.008.212.008 1.38 0 2.546-1.081 2.653-2.46.055-.71-.169-1.399-.632-1.94-.463-.542-1.109-.87-1.82-.925-3.537-.275-6.802-.792-9.708-1.536-.22-.058-.444-.086-.667-.086z"/><path d="m110.471 192.435h-12.035c-2.327 0-4.448-1.371-5.404-3.493l-7.121-15.807c-.146-.323-.221-.673-.221-1.027v-6.883c0-.745.332-1.451.906-1.926.574-.474 1.331-.668 2.061-.53 2.376.452 4.843.779 7.333.972.067.005.14.008.212.008 1.186 0 2.239-.798 2.56-1.941.324-1.156 1.423-1.918 2.621-1.815 1.077.092 1.973.135 2.821.135 5.526 0 11.011-1.396 15.861-4.037.775-.421 1.714-.403 2.472.046.758.451 1.223 1.268 1.223 2.149v13.82c0 .378-.085.75-.25 1.09l-7.704 15.894c-.985 2.033-3.078 3.345-5.335 3.345zm-19.782-20.864 6.9 15.317c.149.332.481.546.846.546h12.035c.353 0 .681-.205.834-.522l7.454-15.378v-9.291c-4.603 1.896-9.565 2.885-14.557 2.885-.478 0-.964-.011-1.476-.035-1.47 2.384-4.181 3.85-7.119 3.633-1.656-.129-3.3-.312-4.918-.548v3.393z"/><path d="m81.002 160.754c-.267 0-.538-.043-.804-.133-17.985-6.111-19.409-18.354-19.461-18.872-.008-.083-.012-.166-.012-.249v-10.146c0-1.381 1.119-2.5 2.5-2.5s2.5 1.119 2.5 2.5v9.985c.159 1.023 1.916 9.734 16.082 14.547 1.308.444 2.007 1.864 1.563 3.171-.354 1.042-1.326 1.697-2.368 1.697z"/><path d="m48.615 102.194c-.367 0-.736-.081-1.079-.245-.868-.416-1.42-1.292-1.42-2.255v-13.643c0-32.042 26.068-58.109 58.109-58.109.351 0 .698.011 1.045.023l.45.014c1.355.035 2.436 1.143 2.436 2.499v42.172c0 3.198 1.763 6.141 4.602 7.678 1.108.601 1.596 1.932 1.138 3.106-.413 1.057-1.473 1.689-2.574 1.58-13.833 17.11-34.186 14.813-40.785 13.51-.454.625-1.191 1.032-2.024 1.032-1.306 0-2.377-1-2.49-2.277-.007-.066-.012-.134-.014-.194-.001-.055-.001-.109 0-.164-.07-1.421-1.249-2.556-2.688-2.556-1.279 0-2.352.896-2.625 2.093-.002.084-.009.169-.02.253l-.023.168c-.009.062-.02.124-.024.188v.048c-.023 1.36-1.133 2.448-2.5 2.448-.617 0-1.182-.225-1.617-.597-2.3.269-4.473 1.18-6.33 2.674-.453.366-1.007.554-1.567.554zm54.541-69.241c-28.793.572-52.041 24.171-52.041 53.098v9.252c1.639-.703 3.381-1.155 5.161-1.333 1.191-2.708 3.901-4.604 7.045-4.604 2.939 0 5.499 1.657 6.792 4.086.337-.012.683.021 1.026.093 6.864 1.436 23.963 3.163 35.967-11.276-2.497-2.533-3.951-5.969-3.951-9.619v-39.697z"/><path d="m68.512 99.557c-1.306 0-2.377-1-2.49-2.277-.007-.066-.012-.134-.014-.194-.001-.055-.001-.109 0-.164-.07-1.421-1.249-2.556-2.688-2.556-1.174 0-2.198.766-2.549 1.907-.364 1.182-1.537 1.924-2.761 1.736-1.223-.184-2.128-1.235-2.128-2.472v-9.486c0-26.655 21.686-48.341 48.342-48.341.393 0 .782.013 1.171.026l.336.011c1.35.042 2.423 1.148 2.423 2.499v32.404c0 3.198 1.763 6.141 4.602 7.678 1.108.601 1.596 1.932 1.138 3.106-.413 1.057-1.473 1.689-2.574 1.58-13.833 17.11-34.186 14.813-40.785 13.51-.453.626-1.19 1.033-2.023 1.033zm1.718-6.107c.301 0 .606.031.91.095 6.864 1.436 23.963 3.163 35.967-11.276-2.497-2.533-3.951-5.969-3.951-9.619v-29.927c-23.407.569-42.273 19.787-42.273 43.328v3.709c.77-.257 1.59-.395 2.438-.395 2.939 0 5.499 1.657 6.792 4.086.039 0 .078-.001.117-.001z"/><path d="m206.244 117.605c-1.349 0-2.666-.543-3.642-1.564l-13.991-14.626c-.212-.222-.509-.349-.815-.349h-48.312c-3.77 0-7.294-1.522-9.924-4.286-.92-.967-.918-2.486.005-3.451l9.625-10.062c1.15-1.203 2.765-1.893 4.429-1.893h53.963c4.811 0 8.725-3.914 8.725-8.724v-55.458c0-1.381 1.119-2.5 2.5-2.5h5.729c7.567 0 13.725 6.157 13.725 13.724v58.926c0 7.567-6.157 13.724-13.725 13.724h-2.1c-.622 0-1.129.506-1.129 1.129v10.354c0 2.076-1.244 3.916-3.171 4.689-.616.247-1.258.367-1.892.367zm-71.2-22.772c1.334.805 2.854 1.233 4.439 1.233h48.312c1.664 0 3.278.69 4.429 1.893l13.991 14.626.09-10.39c0-3.379 2.749-6.129 6.129-6.129h2.1c4.811 0 8.725-3.914 8.725-8.724v-58.925c0-4.811-3.914-8.724-8.725-8.724h-3.229v52.957c0 7.567-6.157 13.724-13.725 13.724h-53.963c-.307 0-.604.127-.815.349z"/><path d="m104.203 165.129c-1.014 0-2.076-.048-3.248-.147-.743-.063-1.419-.454-1.844-1.067s-.554-1.383-.352-2.101c.05-.179.083-.355.095-.523.055-.711-.169-1.4-.632-1.941-.463-.542-1.109-.87-1.82-.925-3.535-.275-6.801-.792-9.707-1.536-.817-.21-1.668-.017-2.339.53-.889.725-2.159.751-3.078.063-9.629-7.209-15.409-18.639-15.462-30.574-.001-.222.028-.443.085-.658.076-.284.112-.504.112-.693v-28.394c-.002-.027-.003-.053-.004-.078-.012-.414.078-.824.263-1.194.897-1.793 2.899-2.759 4.869-2.346 6.963 1.457 24.456 3.214 36.48-11.908 1.081-1.358 2.872-1.96 4.557-1.535.202.051.396.126.58.226 2.066 1.119 3.88 1.076 5.206 1.043.437-.01.812-.014 1.114.004 3.335.052 6.032 2.781 6.032 6.128v10.354l4.456-4.528c.472-.493 1.124-.772 1.807-.772h.003c.684.001 1.337.282 1.809.777 1.71 1.797 4.074 2.745 6.64 2.731.191-.003.407-.006.689.051 1.165.237 2.001 1.261 2.001 2.45v26.991c0 .143.03.28.051.417.021.127.03.256.03.385v.379c-.002 21.169-17.224 38.391-38.393 38.391zm-.398-5.003c.134.002.267.003.398.003 18.412 0 33.391-14.979 33.391-33.391v-.189c-.04-.274-.081-.612-.081-.992v-24.656c-2.19-.329-4.219-1.146-5.976-2.401l-2.725 2.849c-1.435 1.5-3.607 1.969-5.532 1.197-1.926-.773-3.171-2.613-3.171-4.689v-10.354c0-.623-.506-1.129-1.129-1.129-.07 0-.14-.003-.209-.009-.181-.016-.411-.002-.686.004-1.426.034-3.974.097-6.869-1.226-13.513 16.58-33.167 14.78-40.204 13.471v26.942c0 .522-.063 1.06-.194 1.632.134 9.72 4.636 19.031 12.158 25.268 1.551-.68 3.304-.839 4.962-.411 2.624.672 5.603 1.141 8.851 1.393 2.042.159 3.899 1.103 5.231 2.659.991 1.158 1.602 2.551 1.785 4.029zm-35.298-63.116h.01z"/><path d="m125.17 102.913c-.634 0-1.275-.12-1.891-.367-1.926-.773-3.171-2.613-3.171-4.689v-10.354c0-.623-.506-1.129-1.129-1.129h-2.1c-7.567 0-13.724-6.157-13.724-13.724v-58.926c.001-7.567 6.157-13.724 13.725-13.724h80.701c7.567 0 13.725 6.157 13.725 13.724v58.926c0 7.567-6.157 13.724-13.725 13.724h-53.963c-.307 0-.604.127-.815.349l-13.991 14.626c-.976 1.021-2.293 1.564-3.642 1.564zm-8.29-97.913c-4.811 0-8.724 3.914-8.724 8.724v58.926c0 4.811 3.914 8.724 8.724 8.724h2.1c3.379 0 6.129 2.75 6.129 6.129v10.354l14.081-14.59c1.15-1.203 2.765-1.893 4.429-1.893h53.963c4.811 0 8.725-3.914 8.725-8.724v-58.926c0-4.811-3.914-8.724-8.725-8.724z"/><path d="m130.5 52.5c-4.411 0-8-3.589-8-8s3.589-8 8-8 8 3.589 8 8-3.589 8-8 8zm0-11c-1.654 0-3 1.346-3 3s1.346 3 3 3 3-1.346 3-3-1.346-3-3-3z"/><path d="m155.75 52.5c-4.411 0-8-3.589-8-8s3.589-8 8-8 8 3.589 8 8-3.589 8-8 8zm0-11c-1.654 0-3 1.346-3 3s1.346 3 3 3 3-1.346 3-3-1.346-3-3-3z"/><path d="m181 52.5c-4.411 0-8-3.589-8-8s3.589-8 8-8 8 3.589 8 8-3.589 8-8 8zm0-11c-1.654 0-3 1.346-3 3s1.346 3 3 3 3-1.346 3-3-1.346-3-3-3z"/></svg>